<svg width="100" height="100" viewBox="0 0 100 100" fill="none" xmlns="http://www.w3.org/2000/svg">
<path d="M79.5245 35.7292C85.8624 35.7292 91.0002 30.5914 91.0002 24.2535C91.0002 17.9157 85.8624 12.7778 79.5245 12.7778C73.1867 12.7778 68.0488 17.9157 68.0488 24.2535C68.0488 30.5914 73.1867 35.7292 79.5245 35.7292Z" fill="#FF7900"/>
<path d="M14.9932 28.4534L46.8414 56.3397C47.6518 56.98 48.6545 57.3284 49.6873 57.3284C50.7202 57.3284 51.7229 56.98 52.5333 56.3397L72.0496 40.3196" stroke="white" stroke-width="2.67" stroke-linecap="round" stroke-linejoin="round"/>
<path d="M79.5245 35.7292C85.8624 35.7292 91.0002 30.5914 91.0002 24.2535C91.0002 17.9157 85.8624 12.7778 79.5245 12.7778C73.1867 12.7778 68.0488 17.9157 68.0488 24.2535C68.0488 30.5914 73.1867 35.7292 79.5245 35.7292Z" stroke="white" stroke-width="2.67" stroke-linecap="round" stroke-linejoin="round"/>
<path d="M91 37.8257V81.632C91 82.8494 90.5164 84.017 89.6555 84.8778C88.7947 85.7386 87.6271 86.2223 86.4097 86.2223H12.9653C11.7479 86.2223 10.5803 85.7386 9.71946 84.8778C8.85862 84.017 8.375 82.8494 8.375 81.632V26.5487C8.375 25.3312 8.85862 24.1637 9.71946 23.3028C10.5803 22.442 11.7479 21.9584 12.9653 21.9584H62.5129" stroke="white" stroke-width="2.67" stroke-linecap="round" stroke-linejoin="round"/>
</svg>
