<svg width="100" height="100" viewBox="0 0 100 100" fill="none" xmlns="http://www.w3.org/2000/svg">
<path d="M89.743 65.1132C89.4656 63.393 88.893 61.8509 88.0786 60.4691L88.1117 60.5302C87.8216 60.0569 87.3457 59.7235 86.7858 59.6319L86.7756 59.6294L63.9507 56.0057C63.8616 55.9905 63.7572 55.9828 63.6529 55.9828C63.1261 55.9828 62.6477 56.194 62.3016 56.5376C60.5838 58.268 59.263 60.3953 58.4945 62.7721L58.4639 62.8841C48.2462 58.7108 40.2961 50.7586 36.2166 40.8113L36.1199 40.5441C38.6063 39.7425 40.7363 38.4244 42.4643 36.7042C42.8104 36.3581 43.0242 35.8797 43.0242 35.3529C43.0242 35.2486 43.0165 35.1468 42.9987 35.045L43.0013 35.0552L39.3799 12.2292C39.2857 11.6567 38.9498 11.1783 38.4816 10.8958L38.4739 10.8907C37.1888 10.1273 35.6898 9.56747 34.0891 9.29773L34.0128 9.28755C33.2926 9.10433 32.4655 9 31.6129 9C31.4526 9 31.2923 9.00254 31.132 9.01018H31.1549C22.2529 9.0738 15.056 16.2753 15 25.1716V25.1767C15.0382 57.6496 41.3522 83.9644 73.8248 84C82.7318 83.9466 89.9415 76.7425 89.9975 67.8437V67.8386C89.9975 67.775 90 67.7012 90 67.6248C90 66.7342 89.9058 65.8665 89.7302 65.0267L89.7455 65.1081L89.743 65.1132ZM73.8273 80.188C43.4593 80.1524 18.8529 55.5451 18.8173 25.1843C18.8657 18.3798 24.3702 12.8756 31.1727 12.8298H31.1778C31.2134 12.8298 31.2541 12.8298 31.2948 12.8298C31.9947 12.8298 32.6792 12.9061 33.3358 13.0486L33.2722 13.0359C34.2062 13.1886 35.0409 13.4481 35.8222 13.8019L35.7585 13.7764L39.0694 34.6455C37.4712 35.9917 35.4964 36.9408 33.3256 37.32L33.2518 37.3302C32.3484 37.493 31.674 38.2717 31.674 39.2107C31.674 39.4346 31.7122 39.6484 31.7834 39.8469L31.7784 39.8342C36.2904 52.7409 46.274 62.7212 58.8711 67.1388L59.179 67.233C59.3648 67.2991 59.5786 67.3373 59.8 67.3373C60.1563 67.3373 60.4922 67.2406 60.7772 67.0701L60.7696 67.0752C61.2429 66.7927 61.5788 66.3245 61.6781 65.7748L61.6806 65.7621C62.07 63.5151 63.0192 61.5379 64.3807 59.9195L64.3655 59.9373L85.236 63.253C85.5745 64.0063 85.8417 64.8842 85.9918 65.8003L85.9995 65.8614C86.114 66.4008 86.1801 67.0192 86.1801 67.6528C86.1801 67.7139 86.1801 67.7775 86.1776 67.8386V67.8284C86.1369 74.6355 80.6323 80.1422 73.8299 80.188H73.8273Z" fill="white"/>
</svg>
