<svg width="100" height="100" viewBox="0 0 100 100" fill="none" xmlns="http://www.w3.org/2000/svg">
<rect width="100" height="100" rx="8" fill="black" fill-opacity="0.39"/>
<path d="M65.9179 42.5411L64.6048 47.8613C64.1756 49.6131 62.1116 50.9851 59.9059 50.9851H55.4602V75.4999C55.4602 77.432 53.6558 79 51.2742 79H44.7966C42.415 79 40.4775 77.4285 40.4775 75.4981V50.9851H38.3191C35.9375 50.9851 34 49.4153 34 47.4833V42.2313C34 40.301 35.9375 38.7295 38.3191 38.7295H40.4775V33.5038C40.4775 27.7514 46.2192 23.07 53.3018 23.021C53.3468 23.0193 53.3854 23 53.4326 23H62.0708C63.2616 23 64.0426 23.7823 64.0426 24.7483V33.4986C64.0426 34.4664 63.2616 35.2556 62.0708 35.2556H55.5911L55.589 38.7295H62.0665C63.2809 38.7295 64.4009 39.1478 65.1347 39.8758C65.8707 40.602 66.156 41.5751 65.9179 42.5411ZM53.512 42.2313C53.482 42.2331 53.4584 42.2454 53.4284 42.2454C52.2354 42.2436 51.2677 41.4596 51.2699 40.4935V40.4813L51.2742 33.5038C51.2742 32.536 52.2397 31.7538 53.4326 31.7538H59.9102V26.5019H53.5163C53.4799 26.5019 53.4498 26.5176 53.4112 26.5176C48.6608 26.5176 44.7966 29.652 44.7966 33.5038V40.5075C44.7966 41.4753 43.829 42.2593 42.636 42.2593C42.5781 42.2593 42.5287 42.2349 42.4708 42.2313H38.3191V47.4833H42.636C43.829 47.4833 44.7966 48.2673 44.7966 49.2351C44.7966 49.3261 44.7494 49.4031 44.7323 49.4906V75.4999L51.2742 75.4981V49.2526C51.2742 49.2456 51.2699 49.2403 51.2699 49.2351C51.2699 48.2673 52.2354 47.4833 53.4284 47.4833H59.9059C60.0625 47.4833 60.3415 47.2995 60.3694 47.177L61.5902 42.2313H53.512Z" fill="#64ABFF"/>
</svg>
