<svg width="100" height="100" viewBox="0 0 100 100" fill="none" xmlns="http://www.w3.org/2000/svg">
<rect width="100" height="100" rx="8" fill="black" fill-opacity="0.39"/>
<path d="M49.625 18C36.5771 18 26 28.5771 26 41.625C26 47.2143 28.4629 52.1293 31.1886 56.3906L48.0185 80.1692C48.3876 80.6909 48.9871 81 49.625 81C50.2629 81 50.8624 80.6909 51.2315 80.1692L68.0614 56.3906C70.666 52.8843 73.25 47.2143 73.25 41.625C73.25 28.5771 62.6729 18 49.625 18ZM65.4606 56.3906H65.4508L49.625 78.0469L33.7992 56.3906H33.7894C31.3835 52.9148 27.9688 47.3334 27.9688 41.625C27.9688 29.6648 37.6648 19.9688 49.625 19.9688C61.5852 19.9688 71.2812 29.6648 71.2812 41.625C71.2812 47.3334 67.6204 53.2219 65.4606 56.3906Z" fill="#DEDEDE"/>
<path d="M49.625 31.7812C44.1883 31.7812 39.7812 36.1893 39.7812 41.625C39.7812 47.0607 44.1883 51.4688 49.625 51.4688C55.0617 51.4688 59.4688 47.0607 59.4688 41.625C59.4688 36.1893 55.0617 31.7812 49.625 31.7812ZM49.625 49.5C45.276 49.5 41.75 45.974 41.75 41.625C41.75 37.276 45.276 33.75 49.625 33.75C53.974 33.75 57.5 37.276 57.5 41.625C57.5 45.974 53.974 49.5 49.625 49.5Z" fill="#F97600"/>
<path d="M49.625 27.8438C42.0138 27.8438 35.8438 34.0138 35.8438 41.625C35.8438 49.2362 42.0138 55.4062 49.625 55.4062C57.2362 55.4062 63.4062 49.2362 63.4062 41.625C63.4062 34.0138 57.2362 27.8438 49.625 27.8438ZM49.625 53.4375C43.1015 53.4375 37.8125 48.1485 37.8125 41.625C37.8125 35.1015 43.1015 29.8125 49.625 29.8125C56.1485 29.8125 61.4375 35.1015 61.4375 41.625C61.4375 48.1485 56.1485 53.4375 49.625 53.4375Z" fill="#FFD4AE"/>
</svg>
