<svg width="100" height="100" viewBox="0 0 100 100" fill="none" xmlns="http://www.w3.org/2000/svg">
<rect width="100" height="100" rx="8" fill="black" fill-opacity="0.39"/>
<path d="M70.4062 39.9375C74.8073 39.9375 78.375 36.3698 78.375 31.9687C78.375 27.5677 74.8073 24 70.4062 24C66.0052 24 62.4375 27.5677 62.4375 31.9687C62.4375 36.3698 66.0052 39.9375 70.4062 39.9375Z" fill="#FF7900"/>
<path d="M25.5957 34.8851L47.7112 54.2494C48.2739 54.6941 48.9702 54.936 49.6874 54.936C50.4047 54.936 51.1009 54.6941 51.6637 54.2494L65.2158 43.1251" stroke="white" stroke-width="2.67" stroke-linecap="round" stroke-linejoin="round"/>
<path d="M70.4062 39.9375C74.8073 39.9375 78.375 36.3698 78.375 31.9687C78.375 27.5677 74.8073 24 70.4062 24C66.0052 24 62.4375 27.5677 62.4375 31.9687C62.4375 36.3698 66.0052 39.9375 70.4062 39.9375Z" stroke="white" stroke-width="2.67" stroke-linecap="round" stroke-linejoin="round"/>
<path d="M78.375 41.3933V71.8125C78.375 72.6579 78.0392 73.4686 77.4414 74.0664C76.8436 74.6642 76.0329 75 75.1875 75H24.1875C23.3421 75 22.5314 74.6642 21.9336 74.0664C21.3358 73.4686 21 72.6579 21 71.8125V33.5625C21 32.7171 21.3358 31.9064 21.9336 31.3086C22.5314 30.7108 23.3421 30.375 24.1875 30.375H58.5935" stroke="white" stroke-width="2.67" stroke-linecap="round" stroke-linejoin="round"/>
</svg>
