<svg width="100" height="100" viewBox="0 0 100 100" fill="none" xmlns="http://www.w3.org/2000/svg">
<rect width="100" height="100" rx="8" fill="black" fill-opacity="0.39"/>
<path d="M74.5619 62.2111C74.3779 61.0703 73.9982 60.0477 73.4582 59.1314L73.4802 59.1719C73.2878 58.858 72.9723 58.6369 72.601 58.5762L72.5942 58.5745L57.4591 56.1715C57.4 56.1614 57.3308 56.1563 57.2616 56.1563C56.9123 56.1563 56.5951 56.2964 56.3656 56.5242C55.2265 57.6717 54.3507 59.0824 53.8411 60.6586L53.8208 60.7328C47.0455 57.9653 41.7738 52.6919 39.0687 46.0954L39.0046 45.9183C40.6532 45.3867 42.0657 44.5126 43.2115 43.3718C43.441 43.1423 43.5828 42.8251 43.5828 42.4758C43.5828 42.4066 43.5777 42.3391 43.5659 42.2716L43.5676 42.2783L41.1663 27.1414C41.1038 26.7618 40.8811 26.4445 40.5706 26.2572L40.5655 26.2538C39.7133 25.7476 38.7194 25.3763 37.6579 25.1974L37.6073 25.1907C37.1297 25.0692 36.5813 25 36.016 25C35.9097 25 35.8034 25.0017 35.6971 25.0068H35.7122C29.8094 25.0489 25.0371 29.8246 25 35.7241V35.7274C25.0253 57.2616 42.4741 74.7121 64.0066 74.7357C69.9128 74.7003 74.6935 69.9229 74.7306 64.0218V64.0184C74.7306 63.9762 74.7323 63.9273 74.7323 63.8766C74.7323 63.286 74.6699 62.7106 74.5534 62.1537L74.5636 62.2077L74.5619 62.2111ZM64.0082 72.2078C43.8713 72.1842 27.5549 55.8661 27.5312 35.7325C27.5633 31.2201 31.2134 27.5701 35.7241 27.5397H35.7274C35.7511 27.5397 35.7781 27.5397 35.8051 27.5397C36.2691 27.5397 36.7231 27.5903 37.1584 27.6848L37.1162 27.6764C37.7356 27.7776 38.2891 27.9498 38.8071 28.1843L38.7649 28.1674L40.9604 42.0066C39.9006 42.8993 38.5911 43.5288 37.1517 43.7802L37.1027 43.7869C36.5037 43.8949 36.0565 44.4113 36.0565 45.034C36.0565 45.1825 36.0818 45.3243 36.1291 45.4559L36.1257 45.4474C39.1176 54.0064 45.7377 60.6248 54.0908 63.5543L54.295 63.6168C54.4182 63.6606 54.5599 63.6859 54.7068 63.6859C54.943 63.6859 55.1657 63.6218 55.3547 63.5088L55.3497 63.5121C55.6636 63.3248 55.8863 63.0143 55.9521 62.6498L55.9538 62.6414C56.212 61.1513 56.8414 59.8401 57.7442 58.7669L57.7341 58.7787L71.5733 60.9775C71.7977 61.477 71.9749 62.0592 72.0745 62.6667L72.0796 62.7072C72.1555 63.0649 72.1994 63.475 72.1994 63.8952C72.1994 63.9357 72.1994 63.9779 72.1977 64.0184V64.0116C72.1707 68.5257 68.5206 72.1774 64.0099 72.2078H64.0082Z" fill="#FF7900"/>
</svg>
