<svg width="100" height="100" viewBox="0 0 100 100" fill="none" xmlns="http://www.w3.org/2000/svg">
<rect width="100" height="100" rx="8" fill="black" fill-opacity="0.39"/>
<path d="M71.941 28.059C67.6392 23.7447 62.1554 20.8021 56.1821 19.6029C50.2088 18.4038 44.0142 19.0018 38.3806 21.3215C32.747 23.6412 27.9274 27.5785 24.5304 32.636C21.1334 37.6935 19.3115 43.6444 19.2949 49.7368C19.2277 55.1324 20.657 60.441 23.424 65.0735L19 81L35.3689 76.7234C39.8855 79.2006 44.9648 80.4705 50.1157 80.4101C56.1915 80.4348 62.1378 78.6545 67.2004 75.295C72.263 71.9355 76.2139 67.1482 78.5519 61.5402C80.8898 55.9321 81.5097 49.7561 80.3327 43.7953C79.1557 37.8345 76.235 32.3576 71.941 28.059ZM50.1157 75.2488C45.1408 75.2845 40.2665 73.8478 36.1063 71.1197L26.3734 73.7741L29.0278 64.3361C26.0963 60.0276 24.5056 54.9478 24.4563 49.7368C24.4271 44.6557 25.9071 39.6803 28.7088 35.4412C31.5105 31.2022 35.5077 27.8905 40.1937 25.9257C44.8797 23.961 50.0435 23.4318 55.0306 24.4051C60.0177 25.3785 64.6036 27.8106 68.2069 31.3932C71.8102 34.9758 74.2687 39.5475 75.2708 44.529C76.2729 49.5104 75.7734 54.6772 73.8357 59.3744C71.898 64.0717 68.6093 68.0878 64.3865 70.9139C60.1637 73.74 55.1969 75.2487 50.1157 75.2488Z" fill="#4DC95C"/>
<path d="M64.1255 56.2254C62.4149 55.27 60.6412 54.4324 58.8166 53.7185C58.2267 53.4235 57.6369 53.2761 57.1945 54.0134C56.7521 54.7508 55.1299 56.5204 54.6875 57.1102C54.4879 57.3386 54.208 57.4814 53.906 57.5088C53.6039 57.5363 53.3029 57.4464 53.0654 57.2577C50.8056 56.3259 48.7134 55.0308 46.8717 53.4235C45.1804 51.8855 43.7378 50.0947 42.5951 48.1147C42.5134 47.9999 42.4561 47.8696 42.4266 47.7319C42.3972 47.5941 42.3963 47.4518 42.4239 47.3136C42.4515 47.1755 42.5071 47.0444 42.5873 46.9286C42.6675 46.8128 42.7705 46.7145 42.8901 46.64L44.0698 45.1653C44.3677 44.8072 44.6158 44.4103 44.8072 43.9856C44.9237 43.7838 44.985 43.555 44.985 43.322C44.985 43.089 44.9237 42.8602 44.8072 42.6584C44.5122 42.216 43.0375 38.5293 42.4477 36.9071C41.8578 35.285 41.1205 35.5799 40.6781 35.5799H39.2034C38.8017 35.574 38.4045 35.6647 38.0452 35.8443C37.6859 36.024 37.3751 36.2873 37.1388 36.6122C36.259 37.4103 35.5653 38.3919 35.1066 39.4876C34.6479 40.5834 34.4355 41.7665 34.4844 42.9533C34.7415 45.8475 35.8155 48.6091 37.5812 50.9166C38.0236 51.359 43.0375 59.1748 50.7059 62.4191C52.1242 63.1025 53.606 63.6458 55.1299 64.0412C56.6982 64.5641 58.3764 64.6658 59.9964 64.3362C61.471 64.1887 64.5679 62.5666 65.1577 60.7969C65.7476 59.0273 65.8951 57.4052 65.6001 57.1102C65.202 56.682 64.6907 56.3752 64.1255 56.2254Z" fill="#4DC95C"/>
</svg>
