<svg width="100" height="100" viewBox="0 0 100 100" fill="none" xmlns="http://www.w3.org/2000/svg">
<rect width="100" height="100" rx="8" fill="black" fill-opacity="0.39"/>
<path d="M45.7734 59.9484C45.4291 60.1501 45.0338 60.25 44.6407 60.25C44.2879 60.25 43.9352 60.1697 43.6143 60.0052C42.9364 59.6605 42.5156 59.0045 42.5156 58.2916V38.7083C42.5156 37.9974 42.9321 37.3433 43.6058 36.9987C44.2794 36.652 45.1061 36.6677 45.7585 37.0418L62.7994 46.7473C63.422 47.1017 63.8045 47.7284 63.8067 48.404C63.8088 49.0796 63.4348 49.7102 62.8143 50.0686L45.7734 59.9484ZM46.7679 42.2215V54.7451L57.6652 48.4275L46.7679 42.2215Z" fill="#FF6262"/>
<path d="M82.2842 65.3005C81.041 67.8758 77.8343 70.2081 74.8231 70.7232C74.5149 70.776 67.1558 72 51.0202 72H50.9777C34.8442 72 27.4787 70.776 27.1727 70.7251C24.1615 70.2081 20.9526 67.8758 19.7073 65.2986C19.5968 65.0695 17 59.5587 17 48.5C17 37.4413 19.5968 31.9286 19.7073 31.6995C20.9526 29.1223 24.1615 26.7919 27.1727 26.2768C27.4787 26.224 34.8442 25 50.9777 25C67.1558 25 74.5149 26.224 74.8209 26.2749C77.8343 26.7919 81.041 29.1223 82.2863 31.6975C82.3968 31.9286 85 37.4413 85 48.5C85 59.5587 82.3968 65.0695 82.2842 65.3005ZM78.3974 33.2838C77.7344 31.911 75.6561 30.403 74.0453 30.1269C73.9773 30.1152 66.6947 28.9167 51.0202 28.9167C35.3053 28.9167 28.0163 30.1152 27.9462 30.1269C26.3354 30.403 24.2592 31.911 23.5941 33.2916C23.5728 33.3327 21.2523 38.3735 21.2523 48.5C21.2523 58.6246 23.5728 63.6653 23.5983 63.7163C24.2592 65.089 26.3354 66.597 27.9483 66.8731C28.0163 66.8848 35.3053 68.0833 50.9777 68.0833H51.0202C66.6947 68.0833 73.9773 66.8848 74.0474 66.8731C75.6582 66.597 77.7344 65.089 78.3995 63.7084C78.4208 63.6653 80.7456 58.6246 80.7456 48.5C80.7456 38.3754 78.4208 33.3327 78.3974 33.2838Z" fill="white"/>
</svg>
